<svg xmlns="http://www.w3.org/2000/svg" version="1.1" xmlns:xlink="http://www.w3.org/1999/xlink" width="512" height="512" x="0" y="0" viewBox="0 0 512 512" style="enable-background:new 0 0 512 512" xml:space="preserve" class=""><g><path fill="#00d95f" d="m82.84 48.18-6.75 3.65 10.67 33.4 4.38 4.38a14.68 14.68 0 0 0 1.43-1.47c6.65-7.84 5-22.52-1.71-32.1a30.52 30.52 0 0 0-8.02-7.86z" opacity="1" data-original="#8f00cd" class=""></path><path fill="#ff83df" d="M248.06 183.86c-2-1-9.22-1.23-9.22-1.23s7.33-.34 8.9-2.88a1.36 1.36 0 0 0 .27-1.16c-.5-1.29-3.91-1.06-7.8-1.24-6.42-.3-11.44-1.68-11.41-2.14 0-.28 2 0 4.75-1.09 1.19-.48 3.4-1.37 3.83-3.2a2.61 2.61 0 0 0-.25-2c-1.31-1.86-5.9-.37-15.12 1.16l-11.91-4-8.1 20.24 11 2.79a34.35 34.35 0 0 0 10.52 6.39c8.29 3.14 18.93 3.34 19.8.7a1.69 1.69 0 0 0-.18-1.27s-.71-1.5-8.26-2.31c6.09.82 11.43 1 12.18-1.23s-9.17-3.56-9.17-3.56c10.6.48 12.18-2.94 10.17-3.97z" opacity="1" data-original="#ff83df" class=""></path><path fill="#000000" d="M226.38 190.38a.51.51 0 0 1-.31-.11.5.5 0 0 1-.07-.71c3-3.63 2.81-9.81 2.52-12.69a8.37 8.37 0 0 1-4.58 3 16 16 0 0 1-4 .63.5.5 0 0 1 0-1c.07 0 7-.1 8.38-4.4a.49.49 0 0 1 1 .06 28.79 28.79 0 0 1 .38 5.54c-.11 4.13-1.09 7.35-2.9 9.54a.5.5 0 0 1-.42.14zM238.21 183.14a28.58 28.58 0 0 1-5.49-.6.5.5 0 0 1 .2-1 25.38 25.38 0 0 0 5.89.57.49.49 0 0 1 .53.46.5.5 0 0 1-.46.54zM237.88 188.33c-3.6 0-5.29-1.21-5.36-1.26a.5.5 0 1 1 .59-.81 8.88 8.88 0 0 0 4.78 1.07.5.5 0 0 1 0 1zM236.65 193.63a7.83 7.83 0 0 1-2.68-.47 7.51 7.51 0 0 1-2-1.08.5.5 0 0 1 .61-.79 6.54 6.54 0 0 0 1.7.93 6.81 6.81 0 0 0 3.48.32.51.51 0 0 1 .58.41.51.51 0 0 1-.42.58 8.17 8.17 0 0 1-1.27.1z" opacity="1" data-original="#570b7f" class=""></path><path fill="#ff83df" d="m295.07 70.98 13.45-9.08 6.99 10.81-9.35 9.51z" opacity="1" data-original="#ff83df" class=""></path><path fill="#ff83df" d="M329 70.54c.26-2-6.46-.93-6.46-.93l-9.17-2.88-13.8 5.09 8.57 11.51 8.49-6.82s12.11-3.93 12.37-5.97zM494 95.23c-3.21-.38-9.51 4.08-9.51 4.08s8-10.7 5.32-11.21c-1.81-.35-5.31 3.67-7.35 6.28 2.36-3.25 6.18-9 3.15-8.57-4.2.63-11.19 9.42-11.19 9.42s5-12.48 2.52-13S470.31 91 468.49 95s-5.73 15.42-5.73 15.42l-7.28 12 16.09 6.54 3.42-9.47c4.69.26 10.29-14.52 10.29-14.52s11.89-9.35 8.72-9.74z" opacity="1" data-original="#ff83df" class=""></path><path fill="#000000" d="M475 112.19a.5.5 0 0 1-.46-.54 6.53 6.53 0 0 0-2.15-5.69.51.51 0 0 1-.19-.34.48.48 0 0 1 .11-.38c1.81-2.17 4.59-6.16 4.39-7.6a.33.33 0 0 0-.15-.28c-1-.67-4.73 2-7.65 4.79a.5.5 0 1 1-.69-.71c1.11-1.08 6.76-6.38 8.91-4.91a1.38 1.38 0 0 1 .57 1c.29 2.09-3.17 6.6-4.31 8a7.67 7.67 0 0 1 2.15 6.22.5.5 0 0 1-.53.44zM479.42 99.26a.49.49 0 0 1-.41-.78l3-4.38a.51.51 0 0 1 .7-.14.5.5 0 0 1 .13.7l-3 4.39a.51.51 0 0 1-.42.21zM482.41 102.7a.52.52 0 0 1-.29-.09.5.5 0 0 1-.12-.7l2-2.91a.5.5 0 0 1 .82.58l-2 2.89a.54.54 0 0 1-.41.23z" opacity="1" data-original="#570b7f" class=""></path><path fill="#00d95f" d="M361.32 435.8c6.54 26.69 11.46 46.7 11.52 46.69 0-.09-18.58-.45-87.88-1.53a16 16 0 0 1 3.53-9.49c4.81-5.54 11.57-3.59 25.56-8.18 7.18-2.36 11.43-3.82 14.64-8 4-5.22 4.09-11.66 3.79-15.25z" opacity="1" data-original="#8f00cd" class=""></path><path fill="#ffc700" d="m285 485.57 89.17.09c-.81-2.54-1.62-5.07-2.42-7.61L285 479.4z" opacity="1" data-original="#ffc700" class=""></path><circle cx="353.6" cy="463.92" r="7.35" fill="#ffc700" opacity="1" data-original="#ffc700" class=""></circle><path fill="#000000" d="m134.22 439.5 8.77 43H53.6s6.9-9.51 28.06-18.07 20.71-28.62 20.71-28.62zM207.86 431.07s3.85 19.39 15.76 26.37 18.89 13.14 21.77 25.05H188.3s-4.51-6.78-2.87-22.59-4.93-25.9-4.93-25.9z" opacity="1" data-original="#570b7f" class=""></path><path fill="#ff83df" d="M70.75 93.09a10.59 10.59 0 0 0 16.59-1.89l-5.66-20.87-10.12 1.15z" opacity="1" data-original="#ff83df" class=""></path><path fill="#ff59cf" d="m72 75.17-.52-2.66L82 71.32q1.36 5 2.72 10.05a9.23 9.23 0 0 1-5 .59c-5.33-.91-7.53-6.4-7.72-6.79z" opacity="1" data-original="#ff59cf" class=""></path><circle cx="76.09" cy="60.96" r="12.1" fill="#ff83df" opacity="1" data-original="#ff83df" class=""></circle><path fill="#ff83df" d="m76.09 61 11.77-2.73c.47 2.29.84 4.26 1.11 5.81.8 4.46.87 5.67.61 7.1a9.3 9.3 0 0 1-1.68 4.23c-2.83 3.57-9 3.6-13.1 2.14A15.17 15.17 0 0 1 67.09 71a71.83 71.83 0 0 1-2.77-7.3z" opacity="1" data-original="#ff83df" class=""></path><path fill="#ff17b6" d="M87.34 91.2a38.11 38.11 0 0 1 25.27.58c7.81 3 12.46 8.08 15.24 11.07 9 9.68 20.94 21.71 38.17 37.82L214.2 167l-6.74 22a88.28 88.28 0 0 1-35.42-5c-12.94-4.69-21.19-11.24-31.28-19.4a218.35 218.35 0 0 1-37.16-38.64z" opacity="1" data-original="#ff17b6"></path><path fill="#00d95f" d="M62.17 189.9a61.31 61.31 0 0 0-6.82 9.26c-15.91 26.54-7.2 58.48-3.11 74 10.17 38.56 24 97.62 42.87 172l40.89 4-37.5-194.11q2.58-38.85 5.15-77.7z" opacity="1" data-original="#8f00cd" class=""></path><path fill="#00d95f" d="M117.75 177.35s18.3 19.36 33.18 64.9 69 206.91 69 206.91l-36.69 3.62q-46-100.27-95.82-201.5-6.5-13.22-13-26.35l11-37.45z" opacity="1" data-original="#8f00cd" class=""></path><path fill="#ff17b6" d="M120.32 108.23c.26 8 .85 16.53 1.89 25.46a303.69 303.69 0 0 0 11.23 53.52 142.14 142.14 0 0 1-52.71 13.42 140.76 140.76 0 0 1-32.85-2q-.71-39.44-1.43-78.87l24.3-26.62 16.59-1.94z" opacity="1" data-original="#ff17b6"></path><path fill="#00e4e0" d="m47.78 193-1.33 13.1s21.14 8.35 51 3S138 194.61 138 194.61l-5.68-11.33S92.85 207.19 47.78 193zM211.92 165.71q-4 11.68-8 23.37a13.91 13.91 0 0 0 7.23.56q3.75-10.35 7.52-20.71z" opacity="1" data-original="#00e4e0" class=""></path><path fill="#000000" d="M104.52 286.68a.5.5 0 0 1-.49-.4l-6-31.14a.13.13 0 0 0 0-.06l-1.71-29a.5.5 0 0 1 .47-.53.5.5 0 0 1 .53.47L99 255l6 31.11a.5.5 0 0 1-.4.58z" opacity="1" data-original="#570b7f" class=""></path><path fill="#00e4e0" d="M81 92.18s6.4 71 18 108.66l7.74-1a666.11 666.11 0 0 1-14.07-66.26 663.894 663.894 0 0 1-5.39-42.35z" opacity="1" data-original="#00e4e0" class=""></path><path fill="#00d95f" d="M67.33 82.9a26.62 26.62 0 0 0-12.87 3.84c-8.22 5.16-7.21 11.69-15.6 15.6a32.81 32.81 0 0 1-14.24 3c-3.42-.19-4.86-1-6 0-3 2.49.54 12.42 4.93 19.17.7 1.08 10.39 15.58 22.41 14.85a9.57 9.57 0 0 0 4.42-1.16c5.47-3.16 5.72-11.89 6-15.61.62-7.2 3.18-17.59 12.35-31.05-.47-2.88-.93-5.76-1.4-8.64z" opacity="1" data-original="#8f00cd" class=""></path><path fill="#ff17b6" d="M70.75 93.09a55.09 55.09 0 0 0-21.64 9c-32.49 23-36 83.41-17.66 94.39 4.32 2.58 9 1.93 13.15 1.29 33.4-5.12 50.23-49.51 52.19-54.89l-18.21-19.4-24.36 29.45 13.35-31.55s8.23-14.26 3.18-28.29z" opacity="1" data-original="#ff17b6"></path><path fill="#00d95f" d="M76.39 54.29c6.38-2.35 11.75 1.85 12 2.06a15 15 0 0 0-5.56-8.17c-6.2-4.29-15-2.07-19.9 1.6-10.42 7.86-9.75 27.16-2.19 38.33 1.41 2.08 4.3 6.23 9.58 8.07 9.09 3.18 21.1-1.92 23.14-9.17.6-2.14.84-6.29-1.37-8.62a24.22 24.22 0 0 0-4.2-3S76.77 85.71 68.41 65a12.4 12.4 0 0 1 7.98-10.71z" opacity="1" data-original="#8f00cd" class=""></path><path fill="#000000" d="M52 148a.57.57 0 0 1-.18 0 .5.5 0 0 1-.29-.65 63.2 63.2 0 0 0 2.69-33.81.5.5 0 1 1 1-.24 64.43 64.43 0 0 1-2.72 34.41.51.51 0 0 1-.5.29z" opacity="1" data-original="#570b7f" class=""></path><path fill="#000000" d="M29.13 173.66H29a.5.5 0 0 1-.38-.6c2.16-9.64 10.27-15 11-15.44s11.75-10.27 19.47-17.29a59 59 0 0 1 10.63-7.73 34.64 34.64 0 0 1 4.61-2.24.5.5 0 0 1 .65.29.52.52 0 0 1-.3.65 51.28 51.28 0 0 0-14.92 9.77c-7.92 7.2-19.4 17.23-19.51 17.33h-.07c-.08.06-8.43 5.4-10.54 14.84a.51.51 0 0 1-.51.42zM124.42 149.61a.49.49 0 0 1-.48-.37c-.07-.25-6.9-25.79-4.11-41.1a.5.5 0 0 1 1 .18c-2.75 15.09 4 40.41 4.08 40.66a.51.51 0 0 1-.35.62zM55.92 194.84a.5.5 0 0 1-.17-1c19.34-7.05 32.52-33.71 32.65-34a.5.5 0 1 1 .9.44 99.35 99.35 0 0 1-9.11 14.49c-5.29 7-13.78 16.22-24.1 20zM157 150.41a.59.59 0 0 1-.22 0 .5.5 0 0 1-.23-.67c3.52-7.09 9.07-9.39 9.3-9.48a.49.49 0 0 1 .65.28.5.5 0 0 1-.28.65 19.11 19.11 0 0 0-8.77 9 .49.49 0 0 1-.45.22z" opacity="1" data-original="#570b7f" class=""></path><path fill="#ffc700" d="M104.31 140.27a4.26 4.26 0 0 1-4 2.16 4.43 4.43 0 0 1-3.31-2.16l-2.42-44.43h12.15z" opacity="1" data-original="#ffc700" class=""></path><circle cx="100.66" cy="91.6" r="9.52" fill="#ff9100" opacity="1" data-original="#ff9100" class=""></circle><rect width="4.04" height="13.26" x="98.64" y="106.44" fill="#000000" rx="1.59" opacity="1" data-original="#570b7f" class=""></rect><path fill="#ff83df" d="m77.72 131.71 8.72-8.63s3.68-9.78 8.88-13.82l.29 5.48a13.68 13.68 0 0 0 3.76-1.74 15.88 15.88 0 0 0 4.82-5.07c1.49-2.6 1.44-4.38 2.92-4.84a2.42 2.42 0 0 1 2 .27c1.58 1.14 1 5.18-1 10 0 0 3.56-.13 1.1 5.16 0 0 2.46 1.3-.14 5.75 0 0 3 2.74 1.1 5.75s-11.77 13.28-18 11.64c-.31 1.48-.61 3-.92 4.45z" opacity="1" data-original="#ff83df" class=""></path><path fill="#000000" d="M104 118.58a.49.49 0 0 1-.43-.24.51.51 0 0 1 .18-.69 11.39 11.39 0 0 0 4-4.46.49.49 0 0 1 .66-.24.5.5 0 0 1 .25.66 12.24 12.24 0 0 1-4.36 4.91.54.54 0 0 1-.3.06zM105.42 123.88a.52.52 0 0 1-.43-.24.5.5 0 0 1 .17-.69c2-1.19 3.58-4.57 3.6-4.6a.5.5 0 0 1 .66-.24.5.5 0 0 1 .24.67c-.07.15-1.78 3.69-4 5a.5.5 0 0 1-.24.1zM106 128.81a.51.51 0 0 1-.36-.15.51.51 0 0 1 0-.71 18.18 18.18 0 0 0 2.95-3.87.5.5 0 1 1 .88.47 18.68 18.68 0 0 1-3.12 4.11.5.5 0 0 1-.35.15z" opacity="1" data-original="#570b7f" class=""></path><path fill="#00e4e0" d="m74.49 130.82 8.69-4.51 13.61 16.55-2.52 6.25s-9.38.32-19.78-18.29z" opacity="1" data-original="#00e4e0" class=""></path><path fill="#000000" d="M90 89.76a.48.48 0 0 1-.45-.28.5.5 0 0 1 .24-.67 4.94 4.94 0 0 0 2.35-5.29 2.62 2.62 0 0 0-3-2c-5.26.31-7.51-2.65-7.6-2.78a.5.5 0 0 1 .1-.7.51.51 0 0 1 .7.11 5.84 5.84 0 0 0 1.59 1.29 9.06 9.06 0 0 0 5.15 1.08 3.58 3.58 0 0 1 4 2.73 6 6 0 0 1-2.9 6.44.52.52 0 0 1-.18.07zM66.09 93.59a.55.55 0 0 1-.3-.09 31.75 31.75 0 0 1-7.49-8.63.51.51 0 0 1 .19-.68.49.49 0 0 1 .68.18 31.33 31.33 0 0 0 7.21 8.32.5.5 0 0 1 .11.7.51.51 0 0 1-.4.2z" opacity="1" data-original="#570b7f" class=""></path><path fill="#00e4e0" d="M139 462.92s-6.6 2.73-14.84 9.84-64.42 3.87-64.42 3.87-5.2-.57-6.14 5.86H143s3.75-11.21-4-19.57zM185.07 466.33s4.63.56 10 6.37 15.6-2.05 23.27-3.18 11.24 3.78 17 3.18 1.67-5.57 1.67-5.57 9.91 3.18 8.44 15.36H188.3s-8.54-4.66-3.23-16.16z" opacity="1" data-original="#00e4e0" class=""></path><path fill="#000000" d="M53.6 241.58a.48.48 0 0 1-.41-.23.49.49 0 0 1 .14-.69c10.26-6.72 8-23.57 8-23.74a.49.49 0 0 1 .43-.56.5.5 0 0 1 .56.42 38.63 38.63 0 0 1-.13 9.64c-1 6.93-3.85 12.14-8.33 15.08a.57.57 0 0 1-.26.08zM138 226.59h-.08c-5.63-.86-10.49-4.14-14.06-9.5a29.13 29.13 0 0 1-3.73-7.9.51.51 0 0 1 .35-.62.5.5 0 0 1 .61.36c0 .15 4 14.7 17 16.68a.5.5 0 0 1-.07 1zM86 69c.42.59-.68 2.76-2.47 3.21s-3.88-1-3.76-1.71c0-.17.19-.34 2.32-.89 2.46-.61 3.68-.96 3.91-.61z" opacity="1" data-original="#570b7f" class=""></path><path fill="#ff83df" d="M372.7 76.91a10.05 10.05 0 0 1-15.81-1l4.37-20 9.63.61z" opacity="1" data-original="#ff83df" class=""></path><path fill="#ff59cf" d="m370.62 60 .36-2.55-9.93-.62-2.05 9.65a8.83 8.83 0 0 0 4.77.31c4.9-1.12 6.72-6.42 6.85-6.79z" opacity="1" data-original="#ff59cf" class=""></path><circle cx="366.1" cy="46.74" r="11.47" fill="#ff83df" opacity="1" data-original="#ff83df" class=""></circle><path fill="#ff83df" d="m366.1 46.74-11.28-2c-.33 2.19-.59 4.08-.77 5.56-.54 4.26-.55 5.41-.24 6.75a8.93 8.93 0 0 0 1.8 3.93c2.85 3.25 8.7 3 12.51 1.4a14.35 14.35 0 0 0 7-6.53 67.94 67.94 0 0 0 2.27-7z" opacity="1" data-original="#ff83df" class=""></path><path fill="#fff3ff" d="m358.05 56 6 .21a5.53 5.53 0 0 1-3.32 1.67 2.45 2.45 0 0 1-1.92-.37 2.23 2.23 0 0 1-.76-1.51z" opacity="1" data-original="#fff3ff" class=""></path><path fill="#ffc700" d="M357.52 75.31a210.08 210.08 0 0 1-23.95 3.86c-7.79.79-9.57.52-12.93 2-7.42 3.3-8.17 9.62-16.36 19.59a79.13 79.13 0 0 1-11.92 11.72c-40.41 13.11-50.88 21.18-50.2 26.36 1.39 10.49 50 21.59 85.35.31A79.83 79.83 0 0 0 353.69 113zM372.7 76.91a32.12 32.12 0 0 0 9.86 6.5c10.23 4.25 16.14.11 23 2.91 6.14 2.51 8.56 8.76 14.6 27.84 3.89 12.31 7.91 25.61 11.95 39.83l27.1-42.09 19.39 11.31c-6.52 42.09-22.39 72.9-39.59 75.55a36.3 36.3 0 0 1-14.95-1.21c-12.17-4-18.59-14.55-22.27-20.79-17.36-29.47-28.27-94.76-29.09-99.85z" opacity="1" data-original="#ffc700" class=""></path><path fill="#00d95f" d="M385.69 433.49a223.14 223.14 0 0 1 .1 30c-.42 6.42-1.54 19-1.57 19 0-.09 18.58-.45 87.87-1.53a16 16 0 0 0-3.53-9.49c-4.8-5.54-11.56-3.59-25.55-8.18-7.18-2.36-11.43-3.82-14.65-8-4-5.22-4.08-11.66-3.78-15.25z" opacity="1" data-original="#8f00cd" class=""></path><path fill="#ff9100" d="M311.7 183.32a392.85 392.85 0 0 0-11.1 74.46c-5.1 98.48 27.62 195 27.62 195H371s-13-136.65-13.48-172.71 7.28-81.74 7.28-81.74z" opacity="1" data-original="#ff9100" class=""></path><path fill="#ff9100" d="M398.21 194.34s12.13 48.15 15.16 84.52 17.57 173.92 17.57 173.92h-44.85L356.89 294l-9.58-93.17z" opacity="1" data-original="#ff9100" class=""></path><path fill="#00d95f" d="m325.19 108.23-17.7 98.51a320.29 320.29 0 0 0 39 6 319.41 319.41 0 0 0 53.37.4 362.34 362.34 0 0 1 1-105.82L372.7 76.91l-15.18-1.6z" opacity="1" data-original="#8f00cd" class=""></path><path fill="#ff83df" d="M356.89 75.21s-.15 3.54 6.29 5.07a8.76 8.76 0 0 0 9.52-3.37s-7.77-9.59-15.81-1.7z" opacity="1" data-original="#ff83df" class=""></path><path fill="#000000" d="M358.56 303.54a.51.51 0 0 1-.5-.45l-7-60.61a.5.5 0 0 1 1-.11l7 60.61a.5.5 0 0 1-.44.55z" opacity="1" data-original="#570b7f" class=""></path><path fill="#00e4e0" d="M357.52 75.31S323.27 195.73 339.63 219c0 0-30.3 2.59-43.63-4.87a82.61 82.61 0 0 1-1.42-20.79c1.18-19.66 9.2-33.65 12.25-39.53 7.21-13.86 14.54-36.17 13.81-72.58a88.71 88.71 0 0 1 8.69-2.83 92 92 0 0 1 28.19-3.09zM372.7 76.91s3.44 52.36 4.68 84.48a200.07 200.07 0 0 1-6.4 58h37.94a565.1 565.1 0 0 0 2-85.88 566.74 566.74 0 0 0-4.44-47 110 110 0 0 0-33.8-9.63z" opacity="1" data-original="#00e4e0" class=""></path><path fill="#ffc700" d="M296 214.09a119.21 119.21 0 0 0 0 19.21s32.32 6.67 46.86 2.43L339.63 219s-26.86.73-43.63-4.91zM371 219.39l-1.85 17.75s27.47 2.42 39.79 0v-17.75zM350.19 75.31l7.69-3.93s1.52 8.09 0 14-5.23 8.27-5.23 8.27.91-10.27-2.46-18.34zM373.8 94.36s-7.34-13.36-1.71-24.3l3.43 7.22s-2.18 9.54-1.72 17.08z" opacity="1" data-original="#ffc700" class=""></path><path fill="#000000" d="m372.91 52.45-.21-7.74s-1.14-5.31-5.54-7.13c0 0-4.47-3-5.46 1.67s-6.5 3.94-6.5 3.94l-.57 3.55s-8.21-9.31 0-16.58 21.67 4.24 21.67 4.24 9.34.25 8.13 10.31-12.92 18.77-12.92 18.77-3.38-4.65 1.4-11.03z" opacity="1" data-original="#570b7f" class=""></path><ellipse cx="374.48" cy="52.42" fill="#ff83df" rx="5.31" ry="4.08" transform="rotate(-58.04 374.568 52.493)" opacity="1" data-original="#ff83df" class=""></ellipse><path fill="#000000" d="M372.91 55.23a1.3 1.3 0 0 1-1.24-1 .5.5 0 0 1 .95-.31c.11.33.25.32.4.29.55-.13 1.12-.86 1.08-1.16a.16.16 0 0 0-.07-.13 1.59 1.59 0 0 0-1 0 .51.51 0 0 1-.53-.18.5.5 0 0 1 0-.56c.28-.48 1.76-2.86 3.18-2.6a1.28 1.28 0 0 1 .89.6 3 3 0 0 1 .1 2.09.49.49 0 0 1-.62.34.51.51 0 0 1-.34-.62 2 2 0 0 0 0-1.29.35.35 0 0 0-.22-.14c-.35-.06-1 .54-1.58 1.3a1.42 1.42 0 0 1 .68.23 1.13 1.13 0 0 1 .51.83 2.45 2.45 0 0 1-1.84 2.26 1.37 1.37 0 0 1-.35.05z" opacity="1" data-original="#570b7f" class=""></path><path fill="#ffc700" d="M298.83 198s.81-7.05 8.66-13.11 7.09-11.51 7.09-11.51l5.76 1.8s-3.26 8.2-8.94 12.67A16.67 16.67 0 0 0 305 198zM390 182.65s1.78 17.27 14 20.35l1.52-4.92s-8.41-2.81-11.21-17.81zM298.83 66l18.38 19.87c-3.45 5.08-9.31 13.38-17.37 23-18.18 21.75-32.95 39.42-48.08 36.77-5.41-.95-11.15-4.54-13.13-9.7-1.09-2.83-2.48-10.45 17.24-33.2A194.11 194.11 0 0 1 298.83 66z" opacity="1" data-original="#ffc700" class=""></path><path fill="#00e4e0" d="m294.44 68.83 7.26-5.35 17.43 22.66-6.4 6.12z" opacity="1" data-original="#00e4e0" class=""></path><path fill="#00d95f" d="M305 79.73a3.86 3.86 0 0 1-3.48-2.26 4 4 0 0 1 .28-3.55l34.3-21.44 5.33 9.67z" opacity="1" data-original="#8f00cd" class=""></path><circle cx="342.12" cy="55.45" r="8.65" fill="#ff9100" opacity="1" data-original="#ff9100" class=""></circle><rect width="3.67" height="12.05" x="323.19" y="58.86" fill="#000000" rx="1.59" transform="rotate(61.13 324.882 64.826)" opacity="1" data-original="#570b7f" class=""></rect><path fill="#ff83df" d="M308.22 68.91s4.72-.5 7.73.52 4.91 1.36 4.86-.36-4-3.22-4-3.22a20.32 20.32 0 0 1 5 2c1.83 1.21 3.91-.87 1.91-2.79a5.31 5.31 0 0 0-4.09-1.62 13.32 13.32 0 0 1 5.65 2.09s1.87 1.1 2.69-.54-4.35-4.34-4.35-4.34 3.14 1.19 5.32 2.32 3.81-1.74-.51-4.45A16 16 0 0 0 315.2 57c-3.71 1.23-9.72 7.84-9.72 7.84z" opacity="1" data-original="#ff83df" class=""></path><path fill="#000000" d="M259.74 138.5a.5.5 0 0 1 0-1c17.09-.84 26.15-19 26.24-19.16a.64.64 0 0 1 .1-.13l26.29-26.31a.5.5 0 1 1 .71.71l-26.27 26.25a43.27 43.27 0 0 1-6.81 9.44c-4.15 4.4-11 9.74-20.27 10.2zM318.62 67.23a.51.51 0 0 1-.36-.15c-.89-.9-3.16-1.06-4-1a.49.49 0 0 1-.5-.49.5.5 0 0 1 .49-.51c.13 0 3.33 0 4.7 1.35a.5.5 0 0 1-.35.85zM322.89 64.93a.51.51 0 0 1-.31-.11 8.44 8.44 0 0 0-5.34-1.92.5.5 0 1 1-.06-1 9.31 9.31 0 0 1 6 2.14.5.5 0 0 1 .07.7.48.48 0 0 1-.36.19zM323.6 61.17a.47.47 0 0 1-.27-.08 8.74 8.74 0 0 0-4.68-1.62.52.52 0 0 1-.53-.47.5.5 0 0 1 .47-.53 9.47 9.47 0 0 1 5.28 1.78.49.49 0 0 1 .15.69.48.48 0 0 1-.42.23z" opacity="1" data-original="#570b7f" class=""></path><path fill="#00e4e0" d="m455.48 117.7 3.74-5.81 21.11 11.7-3.16 7.96z" opacity="1" data-original="#00e4e0" class=""></path><path fill="#000000" d="M426.9 182a.5.5 0 0 1-.49-.4c-1.43-6.52.08-13.74 1.6-18.66a59.79 59.79 0 0 1 3.67-9.17.5.5 0 1 1 .88.47c-.08.15-7.83 15.05-5.17 27.15a.5.5 0 0 1-.38.6zM362.05 453.28a.5.5 0 0 1-.49-.45c-.07-.63-6.91-63.85-10.47-92.81s3.05-86.77 3.12-87.35a.5.5 0 1 1 1 .12c-.06.58-6.67 58.21-3.12 87.11s10.4 92.19 10.47 92.82a.51.51 0 0 1-.44.56zM421.24 453.28a.49.49 0 0 1-.49-.45l-23.49-214.56a.5.5 0 0 1 1-.11l23.48 214.56a.51.51 0 0 1-.44.56z" opacity="1" data-original="#570b7f" class=""></path><path fill="#ffc700" d="M384.22 479.4h87.87v6.17h-87.87z" opacity="1" data-original="#ffc700" class=""></path><circle cx="399.28" cy="463.92" r="7.35" fill="#ffc700" opacity="1" data-original="#ffc700" class=""></circle><g fill="#8f00cd"><ellipse cx="400.43" cy="65.9" rx="4.67" ry="2.9" transform="rotate(-30 400.416 65.911)" fill="#00d95f" opacity="1" data-original="#8f00cd" class=""></ellipse><path d="M402.86 46.33h1.56v18.48h-1.56z" fill="#00d95f" opacity="1" data-original="#8f00cd" class=""></path><path d="M402.86 51.56v-8.89a6.33 6.33 0 0 1 5 3.63 4.38 4.38 0 0 0 4.46 2.9s-5.41 6.63-9.46 2.36z" fill="#00d95f" opacity="1" data-original="#8f00cd" class=""></path><ellipse cx="302.05" cy="132.55" rx="3.16" ry="1.97" transform="matrix(.87 -.5 .5 .87 -25.81 168.78)" fill="#00d95f" opacity="1" data-original="#8f00cd" class=""></ellipse><path d="M303.69 119.31h1.06v12.5h-1.06z" fill="#00d95f" opacity="1" data-original="#8f00cd" class=""></path><ellipse cx="311.52" cy="128.93" rx="3.16" ry="1.97" transform="rotate(-30 311.503 128.943)" fill="#00d95f" opacity="1" data-original="#8f00cd" class=""></ellipse><path d="M313.17 115.69h1.06v12.5h-1.06z" fill="#00d95f" opacity="1" data-original="#8f00cd" class=""></path><path d="m303.66 123.53 10.53-4.85v-4.93l-10.53 4.89z" fill="#00d95f" opacity="1" data-original="#8f00cd" class=""></path><ellipse cx="204.03" cy="86.81" rx="4.67" ry="2.9" transform="matrix(.87 -.5 .5 .87 -16.07 113.65)" fill="#00d95f" opacity="1" data-original="#8f00cd" class=""></ellipse><path d="M206.47 67.24h1.56v18.48h-1.56z" fill="#00d95f" opacity="1" data-original="#8f00cd" class=""></path><path d="M206.47 72.47v-8.89a6.33 6.33 0 0 1 5 3.63 4.38 4.38 0 0 0 4.46 2.9s-5.41 6.62-9.46 2.36z" fill="#00d95f" opacity="1" data-original="#8f00cd" class=""></path><ellipse cx="137.15" cy="137.59" rx="3.16" ry="1.97" transform="rotate(-30 137.145 137.595)" fill="#00d95f" opacity="1" data-original="#8f00cd" class=""></ellipse><path d="M138.79 124.35h1.06v12.5h-1.06z" fill="#00d95f" opacity="1" data-original="#8f00cd" class=""></path><ellipse cx="146.62" cy="133.97" rx="3.16" ry="1.97" transform="matrix(.87 -.5 .5 .87 -47.34 91.26)" fill="#00d95f" opacity="1" data-original="#8f00cd" class=""></ellipse><path d="M148.27 120.73h1.06v12.5h-1.06z" fill="#00d95f" opacity="1" data-original="#8f00cd" class=""></path><path d="m138.76 128.57 10.53-4.85v-4.93l-10.53 4.89z" fill="#00d95f" opacity="1" data-original="#8f00cd" class=""></path></g></g></svg>